<mxfile host="app.diagrams.net" agent="Mozilla/5.0 (Windows NT 10.0; Win64; x64) AppleWebKit/537.36 (KHTML, like Gecko) Chrome/136.0.0.0 Safari/537.36" version="27.1.3">
  <diagram name="simple-web-app" id="D-A49S5mITpKP7ZY9Lso">
    <mxGraphModel dx="1123" dy="670" grid="1" gridSize="10" guides="1" tooltips="1" connect="1" arrows="1" fold="1" page="1" pageScale="1" pageWidth="827" pageHeight="1169" math="0" shadow="0">
      <root>
        <mxCell id="0" />
        <mxCell id="1" parent="0" />
        <mxCell id="YsTQgqpxp5J_s5YuMFm5-3" value="Servletとは？" style="swimlane;fontStyle=0;childLayout=stackLayout;horizontal=1;startSize=30;fillColor=none;horizontalStack=0;resizeParent=1;resizeParentMax=0;resizeLast=0;collapsible=1;marginBottom=0;whiteSpace=wrap;html=1;" vertex="1" parent="1">
          <mxGeometry x="90" y="110" width="350" height="300" as="geometry">
            <mxRectangle x="90" y="110" width="110" height="30" as="alternateBounds" />
          </mxGeometry>
        </mxCell>
        <mxCell id="YsTQgqpxp5J_s5YuMFm5-4" value="javax.servlet.http.HttpServlet を継承するクラス。" style="text;strokeColor=none;fillColor=none;align=left;verticalAlign=top;spacingLeft=4;spacingRight=4;overflow=hidden;rotatable=0;points=[[0,0.5],[1,0.5]];portConstraint=eastwest;whiteSpace=wrap;html=1;" vertex="1" parent="YsTQgqpxp5J_s5YuMFm5-3">
          <mxGeometry y="30" width="350" height="64" as="geometry" />
        </mxCell>
        <mxCell id="YsTQgqpxp5J_s5YuMFm5-5" value="javax.servlet.http.HttpServlet は Javaのクラス です. 正確には、Java EE（現在は Jakarta EE） に含まれる Servlet API の中にあるクラス" style="text;strokeColor=none;fillColor=none;align=left;verticalAlign=top;spacingLeft=4;spacingRight=4;overflow=hidden;rotatable=0;points=[[0,0.5],[1,0.5]];portConstraint=eastwest;whiteSpace=wrap;html=1;" vertex="1" parent="YsTQgqpxp5J_s5YuMFm5-3">
          <mxGeometry y="94" width="350" height="56" as="geometry" />
        </mxCell>
        <mxCell id="YsTQgqpxp5J_s5YuMFm5-6" value="&lt;div&gt;HttpServlet とは？&lt;/div&gt;&lt;div&gt;完全なクラス名（FQCN）: javax.servlet.http.HttpServlet&lt;/div&gt;&lt;div&gt;継承元: GenericServlet → HttpServlet&lt;/div&gt;&lt;div&gt;&amp;nbsp;所属パッケージ: javax.servlet.http&lt;/div&gt;&lt;div&gt;&amp;nbsp;このクラスは 「サーブレットの基本動作をHTTP向けに拡張したクラス」 です&lt;/div&gt;" style="text;strokeColor=none;fillColor=none;align=left;verticalAlign=top;spacingLeft=4;spacingRight=4;overflow=hidden;rotatable=0;points=[[0,0.5],[1,0.5]];portConstraint=eastwest;whiteSpace=wrap;html=1;" vertex="1" parent="YsTQgqpxp5J_s5YuMFm5-3">
          <mxGeometry y="150" width="350" height="150" as="geometry" />
        </mxCell>
        <mxCell id="YsTQgqpxp5J_s5YuMFm5-9" value="HttpServlet とは？" style="swimlane;fontStyle=0;childLayout=stackLayout;horizontal=1;startSize=26;fillColor=none;horizontalStack=0;resizeParent=1;resizeParentMax=0;resizeLast=0;collapsible=1;marginBottom=0;whiteSpace=wrap;html=1;" vertex="1" parent="1">
          <mxGeometry x="470" y="110" width="340" height="280" as="geometry" />
        </mxCell>
        <mxCell id="YsTQgqpxp5J_s5YuMFm5-10" value="完全なクラス名（FQCN）: javax.servlet.http.HttpServlet" style="text;strokeColor=none;fillColor=none;align=left;verticalAlign=top;spacingLeft=4;spacingRight=4;overflow=hidden;rotatable=0;points=[[0,0.5],[1,0.5]];portConstraint=eastwest;whiteSpace=wrap;html=1;" vertex="1" parent="YsTQgqpxp5J_s5YuMFm5-9">
          <mxGeometry y="26" width="340" height="26" as="geometry" />
        </mxCell>
        <mxCell id="YsTQgqpxp5J_s5YuMFm5-11" value="+ field: type" style="text;strokeColor=none;fillColor=none;align=left;verticalAlign=top;spacingLeft=4;spacingRight=4;overflow=hidden;rotatable=0;points=[[0,0.5],[1,0.5]];portConstraint=eastwest;whiteSpace=wrap;html=1;" vertex="1" parent="YsTQgqpxp5J_s5YuMFm5-9">
          <mxGeometry y="52" width="340" height="26" as="geometry" />
        </mxCell>
        <mxCell id="YsTQgqpxp5J_s5YuMFm5-12" value="+ field: type" style="text;strokeColor=none;fillColor=none;align=left;verticalAlign=top;spacingLeft=4;spacingRight=4;overflow=hidden;rotatable=0;points=[[0,0.5],[1,0.5]];portConstraint=eastwest;whiteSpace=wrap;html=1;" vertex="1" parent="YsTQgqpxp5J_s5YuMFm5-9">
          <mxGeometry y="78" width="340" height="202" as="geometry" />
        </mxCell>
      </root>
    </mxGraphModel>
  </diagram>
</mxfile>
